<svg width="600" height="600" viewBox="0 0 600 600" fill="none" xmlns="http://www.w3.org/2000/svg">
<path d="M300 588L425 371.625M300 588L175 371.625M300 588L550 299.5M300 588L50 299.5M300 11L300 299.5M300 11L550 299.5M300 11L50 299.5M300 299.5L425 371.625M300 299.5L175 371.625M425 371.625L550 299.5M175 371.625L50 299.5" stroke="#6A6A6A" stroke-width="15" stroke-linejoin="round" stroke-linecap="round"/>
<path d="M300 589L300 300.5M300 300.5L175 228.375M300 300.5L425 228.375M175 228.375L300 12L425 228.375M175 228.375L50 300.5M425 228.375L550 300.5" stroke="#6A6A6A" stroke-width="8" stroke-linejoin="round" stroke-dasharray="16 16" stroke-linecap="round"/>
</svg>
