<svg width="600" height="600" viewBox="0 0 600 600" fill="none" xmlns="http://www.w3.org/2000/svg">
<path fill-rule="evenodd" clip-rule="evenodd" d="M305.024 35.4875C302.169 32.9128 297.831 32.9128 294.976 35.4875L42.8248 262.946C41.8976 263.782 41.1938 264.837 40.7775 266.014L10.9291 350.422C9.82481 353.545 10.8999 357.023 13.5741 358.978L295.574 565.111C298.21 567.038 301.79 567.038 304.426 565.111L586.426 358.978C589.1 357.023 590.175 353.545 589.071 350.422L559.223 266.014C558.806 264.837 558.103 263.782 557.175 262.946L305.024 35.4875ZM545.715 272.809L569.454 339.941L446.928 291.843L328.146 76.547L545.715 272.809ZM300 56.5822L431.904 295.664L300 391.627L168.096 295.664L300 56.5822ZM157.245 306.319L292.5 404.721V544.284L33.44 354.919L157.245 306.319ZM30.5459 339.941L153.072 291.843L271.854 76.547L54.285 272.809L30.5459 339.941ZM307.5 544.284V404.721L442.755 306.319L566.56 354.919L307.5 544.284Z" fill="#6A6A6A"/>
<path fill-rule="evenodd" clip-rule="evenodd" d="M300.003 37.0565C298.541 37.0554 297.196 37.8517 296.493 39.1333L292.582 46.266C291.519 48.2031 292.229 50.6344 294.166 51.6966C295.044 52.178 296.023 52.2955 296.931 52.0997C297.665 52.9766 298.767 53.5344 300 53.5344C301.232 53.5344 302.333 52.9777 303.067 52.1022C303.97 52.2941 304.942 52.1765 305.816 51.6994C307.754 50.6401 308.467 48.2099 307.408 46.2712L303.51 39.1385C302.809 37.8559 301.465 37.0576 300.003 37.0565ZM309.774 58.9446C307.836 60.0038 307.123 62.4341 308.182 64.3727L315.977 78.6382C317.036 80.5768 319.467 81.2896 321.405 80.2304C323.344 79.1711 324.057 76.7408 322.997 74.8022L315.203 60.5367C314.143 58.5981 311.713 57.8853 309.774 58.9446ZM290.19 58.9474C288.253 57.8853 285.821 58.5945 284.759 60.5315L276.937 74.797C275.874 76.734 276.584 79.1654 278.521 80.2275C280.458 81.2897 282.889 80.5805 283.951 78.6435L291.774 64.378C292.836 62.441 292.127 60.0096 290.19 58.9474ZM300 62.4901C297.791 62.4901 296 64.2809 296 66.4901V83.4457C296 85.6549 297.791 87.4457 300 87.4457C302.209 87.4457 304 85.6549 304 83.4457V66.4901C304 64.2809 302.209 62.4901 300 62.4901ZM325.364 87.4755C323.426 88.5348 322.713 90.9651 323.772 92.9037L331.567 107.169C332.626 109.108 335.056 109.821 336.995 108.761C338.934 107.702 339.646 105.272 338.587 103.333L330.792 89.0677C329.733 87.1291 327.303 86.4162 325.364 87.4755ZM274.545 87.4784C272.608 86.4162 270.176 87.1255 269.114 89.0625L261.291 103.328C260.229 105.265 260.939 107.696 262.876 108.759C264.813 109.821 267.244 109.111 268.306 107.174L276.129 92.909C277.191 90.9719 276.482 88.5406 274.545 87.4784ZM300 96.4014C297.791 96.4014 296 98.1923 296 100.401V117.357C296 119.566 297.791 121.357 300 121.357C302.209 121.357 304 119.566 304 117.357V100.401C304 98.1923 302.209 96.4014 300 96.4014ZM340.954 116.007C339.015 117.066 338.303 119.496 339.362 121.435L347.157 135.7C348.216 137.639 350.646 138.352 352.585 137.292C354.523 136.233 355.236 133.803 354.177 131.864L346.382 117.599C345.323 115.66 342.893 114.947 340.954 116.007ZM258.9 116.009C256.962 114.947 254.531 115.656 253.469 117.593L245.646 131.859C244.584 133.796 245.294 136.227 247.231 137.289C249.168 138.352 251.599 137.642 252.661 135.705L260.484 121.44C261.546 119.503 260.837 117.072 258.9 116.009ZM300 130.313C297.791 130.313 296 132.104 296 134.313V151.269C296 153.478 297.791 155.269 300 155.269C302.209 155.269 304 153.478 304 151.269V134.313C304 132.104 302.209 130.313 300 130.313ZM356.544 144.537C354.605 145.597 353.892 148.027 354.952 149.966L362.746 164.231C363.806 166.17 366.236 166.883 368.175 165.823C370.113 164.764 370.826 162.334 369.767 160.395L361.972 146.13C360.913 144.191 358.482 143.478 356.544 144.537ZM243.254 144.54C241.317 143.478 238.886 144.187 237.824 146.124L230.001 160.39C228.939 162.327 229.648 164.758 231.585 165.82C233.523 166.883 235.954 166.173 237.016 164.236L244.839 149.971C245.901 148.034 245.192 145.603 243.254 144.54ZM300 164.224C297.791 164.224 296 166.015 296 168.224V185.18C296 187.389 297.791 189.18 300 189.18C302.209 189.18 304 187.389 304 185.18V168.224C304 166.015 302.209 164.224 300 164.224ZM372.133 173.068C370.195 174.128 369.482 176.558 370.541 178.497L378.336 192.762C379.395 194.701 381.826 195.414 383.764 194.354C385.703 193.295 386.416 190.865 385.357 188.926L377.562 174.661C376.502 172.722 374.072 172.009 372.133 173.068ZM227.609 173.071C225.672 172.009 223.241 172.718 222.179 174.655L214.356 188.921C213.294 190.858 214.003 193.289 215.94 194.351C217.877 195.414 220.309 194.704 221.371 192.767L229.193 178.502C230.256 176.565 229.546 174.134 227.609 173.071ZM300 198.136C297.791 198.136 296 199.926 296 202.136V219.091C296 221.3 297.791 223.091 300 223.091C302.209 223.091 304 221.3 304 219.091V202.136C304 199.926 302.209 198.136 300 198.136ZM387.723 201.599C385.785 202.659 385.072 205.089 386.131 207.028L393.926 221.293C394.985 223.232 397.416 223.945 399.354 222.885C401.293 221.826 402.006 219.396 400.946 217.457L393.151 203.192C392.092 201.253 389.662 200.54 387.723 201.599ZM211.964 201.602C210.027 200.54 207.596 201.249 206.534 203.186L198.711 217.452C197.649 219.389 198.358 221.82 200.295 222.882C202.232 223.945 204.664 223.235 205.726 221.298L213.548 207.033C214.611 205.096 213.901 202.664 211.964 201.602ZM196.319 230.133C194.382 229.071 191.951 229.78 190.889 231.717L183.066 245.983C182.004 247.92 182.713 250.351 184.65 251.413C186.587 252.475 189.019 251.766 190.081 249.829L197.903 235.564C198.966 233.627 198.256 231.195 196.319 230.133ZM403.313 230.13C401.374 231.19 400.662 233.62 401.721 235.559L409.516 249.824C410.575 251.763 413.005 252.475 414.944 251.416C416.882 250.357 417.595 247.927 416.536 245.988L408.741 231.723C407.682 229.784 405.252 229.071 403.313 230.13ZM300 232.047C297.791 232.047 296 233.838 296 236.047V241.762L291.544 243.449C289.478 244.232 288.437 246.541 289.219 248.607C290.001 250.673 292.31 251.713 294.376 250.931L299.998 248.803L305.595 250.929C307.66 251.714 309.97 250.676 310.755 248.611C311.539 246.546 310.501 244.236 308.436 243.451L304 241.766V236.047C304 233.838 302.209 232.047 300 232.047ZM317.307 251.101C316.522 253.166 317.56 255.476 319.626 256.261L333.656 261.592C335.721 262.376 338.032 261.338 338.816 259.273C339.601 257.208 338.563 254.898 336.498 254.113L322.467 248.782C320.402 247.998 318.092 249.036 317.307 251.101ZM282.62 251.105C281.838 249.039 279.529 247.998 277.463 248.781L263.382 254.112C261.316 254.894 260.276 257.203 261.058 259.269C261.84 261.335 264.149 262.375 266.215 261.593L280.296 256.262C282.362 255.48 283.402 253.171 282.62 251.105ZM418.903 258.661C416.964 259.721 416.251 262.151 417.311 264.09L425.105 278.355C426.165 280.294 428.595 281.006 430.534 279.947C432.472 278.888 433.185 276.458 432.126 274.519L424.331 260.254C423.272 258.315 420.841 257.602 418.903 258.661ZM180.674 258.664C178.737 257.602 176.306 258.311 175.244 260.248L167.421 274.514C166.359 276.451 167.068 278.882 169.005 279.944C170.942 281.006 173.374 280.297 174.436 278.36L182.258 264.095C183.321 262.158 182.611 259.726 180.674 258.664ZM345.369 261.763C344.584 263.828 345.622 266.138 347.687 266.923L361.718 272.254C363.783 273.038 366.093 272 366.878 269.935C367.662 267.87 366.624 265.56 364.559 264.775L350.529 259.444C348.463 258.66 346.153 259.698 345.369 261.763ZM254.459 261.767C253.677 259.701 251.368 258.66 249.302 259.443L235.221 264.774C233.155 265.556 232.115 267.865 232.897 269.931C233.679 271.997 235.988 273.038 238.054 272.255L252.135 266.924C254.201 266.142 255.241 263.833 254.459 261.767ZM553.94 267.482C553.37 265.348 551.178 264.08 549.043 264.65L542.183 266.483C540.049 267.053 538.78 269.245 539.351 271.379C539.921 273.514 542.113 274.782 544.247 274.212L551.108 272.379C553.242 271.809 554.51 269.617 553.94 267.482ZM45.1725 267.486C44.6042 269.62 45.8742 271.812 48.009 272.38L54.8938 274.212C57.0286 274.781 59.2199 273.511 59.7881 271.376C60.3563 269.241 59.0864 267.05 56.9516 266.482L50.0668 264.649C47.9319 264.081 45.7407 265.351 45.1725 267.486ZM373.43 272.425C372.646 274.49 373.684 276.8 375.749 277.585L389.779 282.916C391.845 283.7 394.155 282.662 394.939 280.597C395.724 278.532 394.686 276.222 392.621 275.437L378.59 270.106C376.525 269.322 374.215 270.36 373.43 272.425ZM226.298 272.429C225.516 270.363 223.207 269.322 221.141 270.105L207.06 275.436C204.994 276.218 203.954 278.527 204.736 280.593C205.518 282.659 207.827 283.7 209.893 282.917L223.974 277.586C226.04 276.804 227.08 274.495 226.298 272.429ZM533.359 272.98C532.789 270.846 530.596 269.578 528.462 270.148L514.741 273.813C512.607 274.383 511.339 276.575 511.909 278.71C512.479 280.844 514.671 282.112 516.805 281.542L530.526 277.877C532.661 277.307 533.929 275.114 533.359 272.98ZM65.8269 272.983C65.2587 275.118 66.5286 277.309 68.6634 277.878L82.4331 281.543C84.5679 282.111 86.7591 280.841 87.3273 278.706C87.8956 276.571 86.6256 274.38 84.4908 273.812L70.7212 270.147C68.5863 269.579 66.3951 270.848 65.8269 272.983ZM505.917 280.31C505.347 278.176 503.154 276.908 501.02 277.478L487.299 281.143C485.165 281.713 483.897 283.905 484.467 286.04C485.037 288.174 487.229 289.442 489.364 288.872L503.085 285.207C505.219 284.637 506.487 282.444 505.917 280.31ZM93.3661 280.313C92.7979 282.448 94.0679 284.64 96.2027 285.208L109.972 288.873C112.107 289.441 114.298 288.171 114.867 286.036C115.435 283.901 114.165 281.71 112.03 281.142L98.2604 277.477C96.1256 276.909 93.9343 278.179 93.3661 280.313ZM401.492 283.087C400.707 285.152 401.745 287.462 403.81 288.247L417.841 293.578C419.906 294.362 422.216 293.324 423.001 291.259C423.786 289.194 422.748 286.884 420.682 286.099L406.652 280.768C404.587 279.984 402.276 281.022 401.492 283.087ZM198.137 283.091C197.355 281.025 195.046 279.985 192.98 280.767L178.899 286.098C176.833 286.88 175.793 289.189 176.575 291.255C177.357 293.321 179.666 294.362 181.732 293.58L195.812 288.249C197.878 287.466 198.919 285.157 198.137 283.091ZM478.475 287.64C477.905 285.506 475.712 284.238 473.578 284.808L459.857 288.473C457.723 289.043 456.455 291.236 457.025 293.37C457.595 295.504 459.787 296.772 461.922 296.202L475.643 292.537C477.777 291.967 479.045 289.775 478.475 287.64ZM120.905 287.644C120.337 289.778 121.607 291.97 123.742 292.538L137.511 296.203C139.646 296.771 141.838 295.501 142.406 293.366C142.974 291.232 141.704 289.04 139.569 288.472L125.8 284.807C123.665 284.239 121.474 285.509 120.905 287.644ZM165.029 287.195C163.092 286.133 160.661 286.842 159.599 288.779L157.195 293.164L153.339 292.137C151.204 291.569 149.013 292.839 148.445 294.974C147.876 297.109 149.146 299.3 151.281 299.868L156.494 301.256L159.585 306.989C160.633 308.934 163.059 309.661 165.004 308.612C166.949 307.564 167.675 305.138 166.627 303.193L164.883 299.959L167.651 298.911C169.717 298.128 170.758 295.819 169.976 293.753C169.476 292.433 168.353 291.532 167.069 291.257C167.292 289.659 166.528 288.017 165.029 287.195ZM442.311 293.16L439.921 288.784C438.861 286.846 436.431 286.133 434.492 287.192C432.99 288.013 432.224 289.658 432.448 291.259C431.17 291.537 430.053 292.435 429.553 293.749C428.769 295.814 429.807 298.124 431.872 298.909L434.628 299.956L432.887 303.199C431.841 305.145 432.572 307.57 434.518 308.615C436.464 309.661 438.889 308.93 439.934 306.984L443.013 301.253L448.201 299.867C450.335 299.297 451.603 297.105 451.033 294.97C450.463 292.836 448.27 291.568 446.136 292.138L442.311 293.16ZM430.508 316.08C428.562 315.034 426.137 315.765 425.092 317.711L417.297 332.223C416.252 334.169 416.982 336.594 418.928 337.64C420.874 338.685 423.299 337.955 424.345 336.009L432.139 321.496C433.185 319.55 432.455 317.125 430.508 316.08ZM169.031 316.083C167.086 317.131 166.359 319.557 167.408 321.502L175.23 336.014C176.278 337.959 178.704 338.685 180.649 337.637C182.594 336.589 183.32 334.163 182.272 332.218L174.45 317.706C173.401 315.761 170.975 315.034 169.031 316.083ZM414.919 345.104C412.972 344.059 410.547 344.789 409.502 346.736L401.707 361.248C400.662 363.194 401.392 365.619 403.338 366.664C405.284 367.71 407.71 366.979 408.755 365.033L416.55 350.521C417.595 348.575 416.865 346.15 414.919 345.104ZM184.676 345.107C182.731 346.155 182.004 348.582 183.053 350.526L190.875 365.039C191.923 366.983 194.349 367.71 196.294 366.662C198.239 365.613 198.965 363.187 197.917 361.243L190.095 346.73C189.046 344.786 186.62 344.059 184.676 345.107ZM399.329 374.129C397.383 373.084 394.958 373.814 393.912 375.76L386.117 390.272C385.072 392.219 385.802 394.644 387.749 395.689C389.695 396.734 392.12 396.004 393.165 394.058L400.96 379.546C402.005 377.599 401.275 375.174 399.329 374.129ZM200.321 374.132C198.376 375.18 197.649 377.606 198.698 379.551L206.52 394.063C207.568 396.008 209.994 396.734 211.939 395.686C213.884 394.638 214.61 392.212 213.562 390.267L205.74 375.755C204.691 373.81 202.265 373.084 200.321 374.132ZM383.739 403.154C381.793 402.108 379.368 402.839 378.323 404.785L370.528 419.297C369.482 421.243 370.213 423.668 372.159 424.714C374.105 425.759 376.53 425.029 377.575 423.082L385.37 408.57C386.416 406.624 385.685 404.199 383.739 403.154ZM215.966 403.156C214.021 404.205 213.294 406.631 214.343 408.575L222.165 423.088C223.213 425.032 225.64 425.759 227.584 424.711C229.529 423.663 230.255 421.236 229.207 419.292L221.385 404.78C220.337 402.835 217.91 402.108 215.966 403.156ZM368.149 432.178C366.203 431.133 363.778 431.863 362.733 433.809L354.938 448.322C353.893 450.268 354.623 452.693 356.569 453.738C358.515 454.783 360.94 454.053 361.986 452.107L369.78 437.595C370.826 435.649 370.096 433.223 368.149 432.178ZM231.611 432.181C229.666 433.229 228.939 435.655 229.988 437.6L237.81 452.112C238.858 454.057 241.285 454.784 243.229 453.735C245.174 452.687 245.9 450.261 244.852 448.316L237.03 433.804C235.982 431.859 233.555 431.133 231.611 432.181ZM352.56 461.203C350.613 460.157 348.188 460.888 347.143 462.834L339.348 477.346C338.303 479.292 339.033 481.717 340.979 482.763C342.925 483.808 345.35 483.078 346.396 481.132L354.191 466.619C355.236 464.673 354.506 462.248 352.56 461.203ZM247.256 461.206C245.311 462.254 244.584 464.68 245.633 466.625L253.455 481.137C254.503 483.081 256.93 483.808 258.874 482.76C260.819 481.712 261.546 479.286 260.497 477.341L252.675 462.829C251.627 460.884 249.2 460.157 247.256 461.206ZM336.97 490.227C335.024 489.182 332.599 489.912 331.553 491.858L323.758 506.371C322.713 508.317 323.443 510.742 325.389 511.787C327.336 512.833 329.761 512.102 330.806 510.156L338.601 495.644C339.646 493.698 338.916 491.273 336.97 490.227ZM262.901 490.23C260.956 491.278 260.23 493.705 261.278 495.649L269.1 510.161C270.148 512.106 272.575 512.833 274.519 511.785C276.464 510.736 277.191 508.31 276.142 506.366L268.32 491.853C267.272 489.909 264.845 489.182 262.901 490.23ZM321.38 519.252C319.434 518.207 317.009 518.937 315.964 520.883L308.169 535.395C307.123 537.341 307.854 539.767 309.8 540.812C311.746 541.857 314.171 541.127 315.216 539.181L323.011 524.668C324.057 522.722 323.326 520.297 321.38 519.252ZM278.546 519.255C276.601 520.303 275.875 522.729 276.923 524.674L284.745 539.186C285.793 541.131 288.22 541.857 290.164 540.809C292.109 539.761 292.836 537.335 291.787 535.39L283.965 520.878C282.917 518.933 280.491 518.207 278.546 519.255ZM305.79 548.276C303.844 547.231 301.419 547.961 300.374 549.908L299.994 550.615L299.61 549.902C298.562 547.958 296.136 547.231 294.191 548.279C292.246 549.327 291.52 551.754 292.568 553.698L296.479 560.954C297.177 562.25 298.531 563.058 300.003 563.057C301.475 563.055 302.827 562.246 303.524 560.949L307.421 553.693C308.467 551.747 307.737 549.322 305.79 548.276Z" fill="#6A6A6A"/>
</svg>
