<svg width="600" height="600" viewBox="0 0 600 600" fill="none" xmlns="http://www.w3.org/2000/svg">
<path d="M257 175L300.301 200V250L257 275L213.699 250V200L257 175Z" stroke="#6A6A6A" stroke-width="12" stroke-linejoin="round"/>
<path d="M128 250L171.301 275V325L128 350L84.6987 325V275L128 250Z" stroke="#6A6A6A" stroke-width="12" stroke-linejoin="round"/>
<path d="M128 400L171.301 425V475L128 500L84.6987 475V425L128 400Z" stroke="#6A6A6A" stroke-width="12" stroke-linejoin="round"/>
<path d="M128 100L171.301 125V175L128 200L84.6987 175V125L128 100Z" stroke="#6A6A6A" stroke-width="12" stroke-linejoin="round"/>
<path d="M257 325L300.301 350V400L257 425L213.699 400V350L257 325Z" stroke="#6A6A6A" stroke-width="12" stroke-linejoin="round"/>
<path d="M386 250L429.301 275V325L386 350L342.699 325V275L386 250Z" stroke="#6A6A6A" stroke-width="12" stroke-linejoin="round"/>
<path d="M386 400L429.301 425V475L386 500L342.699 475V425L386 400Z" stroke="#6A6A6A" stroke-width="12" stroke-linejoin="round"/>
<path d="M386 100L429.301 125V175L386 200L342.699 175V125L386 100Z" stroke="#6A6A6A" stroke-width="12" stroke-linejoin="round"/>
<path d="M257 25L300.301 50V100L257 125L213.699 100V50L257 25Z" stroke="#6A6A6A" stroke-width="12" stroke-linejoin="round"/>
<path d="M257 475L300.301 500V550L257 575L213.699 550V500L257 475Z" stroke="#6A6A6A" stroke-width="12" stroke-linejoin="round"/>
<path d="M300 250L343.301 275V325L300 350L256.699 325V275L300 250Z" stroke="#6A6A6A" stroke-width="12" stroke-linejoin="round"/>
<path d="M300 400L343.301 425V475L300 500L256.699 475V425L300 400Z" stroke="#6A6A6A" stroke-width="12" stroke-linejoin="round"/>
<path d="M171 325L214.301 350V400L171 425L127.699 400V350L171 325Z" stroke="#6A6A6A" stroke-width="12" stroke-linejoin="round"/>
<path d="M85 325L128.301 350V400L85 425L41.6987 400V350L85 325Z" stroke="#6A6A6A" stroke-width="12" stroke-linejoin="round"/>
<path d="M171 175L214.301 200V250L171 275L127.699 250V200L171 175Z" stroke="#6A6A6A" stroke-width="12" stroke-linejoin="round"/>
<path d="M85 175L128.301 200V250L85 275L41.6987 250V200L85 175Z" stroke="#6A6A6A" stroke-width="12" stroke-linejoin="round"/>
<path d="M429 325L472.301 350V400L429 425L385.699 400V350L429 325Z" stroke="#6A6A6A" stroke-width="12" stroke-linejoin="round"/>
<path d="M515 325L558.301 350V400L515 425L471.699 400V350L515 325Z" stroke="#6A6A6A" stroke-width="12" stroke-linejoin="round"/>
<path d="M429 175L472.301 200V250L429 275L385.699 250V200L429 175Z" stroke="#6A6A6A" stroke-width="12" stroke-linejoin="round"/>
<path d="M515 175L558.301 200V250L515 275L471.699 250V200L515 175Z" stroke="#6A6A6A" stroke-width="12" stroke-linejoin="round"/>
<path d="M300 100L343.301 125V175L300 200L256.699 175V125L300 100Z" stroke="#6A6A6A" stroke-width="12" stroke-linejoin="round"/>
<path d="M343 175L386.301 200V250L343 275L299.699 250V200L343 175Z" stroke="#6A6A6A" stroke-width="12" stroke-linejoin="round"/>
<path d="M214 250L257.301 275V325L214 350L170.699 325V275L214 250Z" stroke="#6A6A6A" stroke-width="12" stroke-linejoin="round"/>
<path d="M214 400L257.301 425V475L214 500L170.699 475V425L214 400Z" stroke="#6A6A6A" stroke-width="12" stroke-linejoin="round"/>
<path d="M214 100L257.301 125V175L214 200L170.699 175V125L214 100Z" stroke="#6A6A6A" stroke-width="12" stroke-linejoin="round"/>
<path d="M343 325L386.301 350V400L343 425L299.699 400V350L343 325Z" stroke="#6A6A6A" stroke-width="12" stroke-linejoin="round"/>
<path d="M472 250L515.301 275V325L472 350L428.699 325V275L472 250Z" stroke="#6A6A6A" stroke-width="12" stroke-linejoin="round"/>
<path d="M472 400L515.301 425V475L472 500L428.699 475V425L472 400Z" stroke="#6A6A6A" stroke-width="12" stroke-linejoin="round"/>
<path d="M472 100L515.301 125V175L472 200L428.699 175V125L472 100Z" stroke="#6A6A6A" stroke-width="12" stroke-linejoin="round"/>
<path d="M343 25L386.301 50V100L343 125L299.699 100V50L343 25Z" stroke="#6A6A6A" stroke-width="12" stroke-linejoin="round"/>
<path d="M343 475L386.301 500V550L343 575L299.699 550V500L343 475Z" stroke="#6A6A6A" stroke-width="12" stroke-linejoin="round"/>
<path d="M175 343L200 299.699H250L275 343L250 386.301H200L175 343Z" stroke="#6A6A6A" stroke-width="4" stroke-linecap="round" stroke-linejoin="round" stroke-dasharray="12 12"/>
<path d="M250 472L275 428.699H325L350 472L325 515.301H275L250 472Z" stroke="#6A6A6A" stroke-width="4" stroke-linecap="round" stroke-linejoin="round" stroke-dasharray="12 12"/>
<path d="M400 472L425 428.699H475L500 472L475 515.301H425L400 472Z" stroke="#6A6A6A" stroke-width="4" stroke-linecap="round" stroke-linejoin="round" stroke-dasharray="12 12"/>
<path d="M100 472L125 428.699H175L200 472L175 515.301H125L100 472Z" stroke="#6A6A6A" stroke-width="4" stroke-linecap="round" stroke-linejoin="round" stroke-dasharray="12 12"/>
<path d="M325 343L350 299.699H400L425 343L400 386.301H350L325 343Z" stroke="#6A6A6A" stroke-width="4" stroke-linecap="round" stroke-linejoin="round" stroke-dasharray="12 12"/>
<path d="M250 214L275 170.699H325L350 214L325 257.301H275L250 214Z" stroke="#6A6A6A" stroke-width="4" stroke-linecap="round" stroke-linejoin="round" stroke-dasharray="12 12"/>
<path d="M400 214L425 170.699H475L500 214L475 257.301H425L400 214Z" stroke="#6A6A6A" stroke-width="4" stroke-linecap="round" stroke-linejoin="round" stroke-dasharray="12 12"/>
<path d="M100 214L125 170.699H175L200 214L175 257.301H125L100 214Z" stroke="#6A6A6A" stroke-width="4" stroke-linecap="round" stroke-linejoin="round" stroke-dasharray="12 12"/>
<path d="M25 343L50 299.699H100L125 343L100 386.301H50L25 343Z" stroke="#6A6A6A" stroke-width="4" stroke-linecap="round" stroke-linejoin="round" stroke-dasharray="12 12"/>
<path d="M475 343L500 299.699H550L575 343L550 386.301H500L475 343Z" stroke="#6A6A6A" stroke-width="4" stroke-linecap="round" stroke-linejoin="round" stroke-dasharray="12 12"/>
<path d="M250 300L275 256.699H325L350 300L325 343.301H275L250 300Z" stroke="#6A6A6A" stroke-width="4" stroke-linecap="round" stroke-linejoin="round" stroke-dasharray="12 12"/>
<path d="M400 300L425 256.699H475L500 300L475 343.301H425L400 300Z" stroke="#6A6A6A" stroke-width="4" stroke-linecap="round" stroke-linejoin="round" stroke-dasharray="12 12"/>
<path d="M325 429L350 385.699H400L425 429L400 472.301H350L325 429Z" stroke="#6A6A6A" stroke-width="4" stroke-linecap="round" stroke-linejoin="round" stroke-dasharray="12 12"/>
<path d="M325 515L350 471.699H400L425 515L400 558.301H350L325 515Z" stroke="#6A6A6A" stroke-width="4" stroke-linecap="round" stroke-linejoin="round" stroke-dasharray="12 12"/>
<path d="M175 429L200 385.699H250L275 429L250 472.301H200L175 429Z" stroke="#6A6A6A" stroke-width="4" stroke-linecap="round" stroke-linejoin="round" stroke-dasharray="12 12"/>
<path d="M175 515L200 471.699H250L275 515L250 558.301H200L175 515Z" stroke="#6A6A6A" stroke-width="4" stroke-linecap="round" stroke-linejoin="round" stroke-dasharray="12 12"/>
<path d="M325 171L350 127.699H400L425 171L400 214.301H350L325 171Z" stroke="#6A6A6A" stroke-width="4" stroke-linecap="round" stroke-linejoin="round" stroke-dasharray="12 12"/>
<path d="M325 85L350 41.6987H400L425 85L400 128.301H350L325 85Z" stroke="#6A6A6A" stroke-width="4" stroke-linecap="round" stroke-linejoin="round" stroke-dasharray="12 12"/>
<path d="M175 171L200 127.699H250L275 171L250 214.301H200L175 171Z" stroke="#6A6A6A" stroke-width="4" stroke-linecap="round" stroke-linejoin="round" stroke-dasharray="12 12"/>
<path d="M175 85L200 41.6987H250L275 85L250 128.301H200L175 85Z" stroke="#6A6A6A" stroke-width="4" stroke-linecap="round" stroke-linejoin="round" stroke-dasharray="12 12"/>
<path d="M100 300L125 256.699H175L200 300L175 343.301H125L100 300Z" stroke="#6A6A6A" stroke-width="4" stroke-linecap="round" stroke-linejoin="round" stroke-dasharray="12 12"/>
<path d="M175 257L200 213.699H250L275 257L250 300.301H200L175 257Z" stroke="#6A6A6A" stroke-width="4" stroke-linecap="round" stroke-linejoin="round" stroke-dasharray="12 12"/>
<path d="M250 386L275 342.699H325L350 386L325 429.301H275L250 386Z" stroke="#6A6A6A" stroke-width="4" stroke-linecap="round" stroke-linejoin="round" stroke-dasharray="12 12"/>
<path d="M400 386L425 342.699H475L500 386L475 429.301H425L400 386Z" stroke="#6A6A6A" stroke-width="4" stroke-linecap="round" stroke-linejoin="round" stroke-dasharray="12 12"/>
<path d="M100 386L125 342.699H175L200 386L175 429.301H125L100 386Z" stroke="#6A6A6A" stroke-width="4" stroke-linecap="round" stroke-linejoin="round" stroke-dasharray="12 12"/>
<path d="M325 257L350 213.699H400L425 257L400 300.301H350L325 257Z" stroke="#6A6A6A" stroke-width="4" stroke-linecap="round" stroke-linejoin="round" stroke-dasharray="12 12"/>
<path d="M250 128L275 84.6987H325L350 128L325 171.301H275L250 128Z" stroke="#6A6A6A" stroke-width="4" stroke-linecap="round" stroke-linejoin="round" stroke-dasharray="12 12"/>
<path d="M400 128L425 84.6987H475L500 128L475 171.301H425L400 128Z" stroke="#6A6A6A" stroke-width="4" stroke-linecap="round" stroke-linejoin="round" stroke-dasharray="12 12"/>
<path d="M100 128L125 84.6987H175L200 128L175 171.301H125L100 128Z" stroke="#6A6A6A" stroke-width="4" stroke-linecap="round" stroke-linejoin="round" stroke-dasharray="12 12"/>
<path d="M25 257L50 213.699H100L125 257L100 300.301H50L25 257Z" stroke="#6A6A6A" stroke-width="4" stroke-linecap="round" stroke-linejoin="round" stroke-dasharray="12 12"/>
<path d="M475 257L500 213.699H550L575 257L550 300.301H500L475 257Z" stroke="#6A6A6A" stroke-width="4" stroke-linecap="round" stroke-linejoin="round" stroke-dasharray="12 12"/>
</svg>
