<svg width="600" height="600" viewBox="0 0 600 600" fill="none" xmlns="http://www.w3.org/2000/svg">
<g clip-path="url(#clip0_9_50)">
<path d="M300 299.5L462.38 205.75M300 299.5L299.951 486.915M300 299.5L137.669 205.835M570.6 330.636L570.6 268.193L462.413 80.8069L408.302 49.5853M570.6 330.636L462.38 205.75M570.6 330.636L462.298 518.108M191.829 49.6422L408.302 49.5853M191.829 49.6422L137.702 80.8922L29.3999 268.364L29.3999 330.807M191.829 49.6422L137.669 205.835M408.302 49.5853L462.38 205.75M137.587 518.193L191.698 549.415L408.171 549.358L462.298 518.108M137.587 518.193L29.3999 330.807M137.587 518.193L299.951 486.915M462.298 518.108L299.951 486.915M29.3999 330.807L137.669 205.835" stroke="#6A6A6A" stroke-width="15" stroke-miterlimit="1" stroke-linejoin="round" stroke-linecap="round"/>
<path d="M300.404 297.682V113.693M300.404 297.682L459.646 389.676M300.404 297.682L141.162 389.676M459.63 83L300.404 113.693M35 267.017L141.162 389.676M141.162 83.0279L300.404 113.693M406.565 543L459.646 389.676M565.808 267.017L459.646 389.676M194.242 543L141.162 389.676" stroke="#6A6A6A" stroke-width="8" stroke-miterlimit="1" stroke-linejoin="round" stroke-dasharray="16 16" stroke-linecap="round"/>
</g>
<defs>
<clipPath id="clip0_9_50">
<rect width="600" height="600" fill="white"/>
</clipPath>
</defs>
</svg>
