<svg width="600" height="600" viewBox="0 0 600 600" fill="none" xmlns="http://www.w3.org/2000/svg">
<path d="M575 271.4C575 153.542 451.878 58 300 58C148.122 58 25 153.542 25 271.4M575 271.4C575 314.664 558.408 354.922 529.893 388.55M575 271.4V328.6C575 371.864 558.408 412.122 529.893 445.75M300 484.8V542M300 484.8C333.034 484.8 364.708 480.28 394.05 471.993M300 484.8C266.966 484.8 235.292 480.28 205.95 471.993M25 271.4C25 314.664 41.5915 354.922 70.1063 388.55M25 271.4V328.6C25 371.864 41.5915 412.122 70.1063 445.75M300 542C333.034 542 364.708 537.48 394.05 529.193M300 542C266.966 542 235.292 537.48 205.95 529.193M394.05 471.993V529.193M394.05 471.993C422.361 463.998 448.502 452.497 471.6 438.166M394.05 529.193C422.361 521.198 448.502 509.697 471.6 495.366M471.6 438.166V495.366M471.6 438.166C494.223 424.13 513.927 407.379 529.893 388.55M471.6 495.366C494.223 481.33 513.927 464.579 529.893 445.75M529.893 388.55V445.75M205.95 471.993V529.193M205.95 471.993C177.639 463.998 151.498 452.497 128.4 438.166M205.95 529.193C177.639 521.198 151.498 509.697 128.4 495.366M128.4 438.166V495.366M128.4 438.166C105.777 424.13 86.0725 407.379 70.1063 388.55M128.4 495.366C105.777 481.33 86.0725 464.579 70.1063 445.75M70.1063 388.55V445.75" stroke="#6A6A6A" stroke-width="15"/>
<path d="M300 115.2L300 58.0003M300 115.2C266.966 115.2 235.292 119.72 205.95 128.006M300 115.2C333.034 115.2 364.708 119.72 394.05 128.006M300 58.0003C266.966 58.0003 235.292 62.5202 205.95 70.8065M300 58.0003C333.034 58.0003 364.708 62.5202 394.05 70.8065M205.95 128.006L205.95 70.8065M205.95 128.006C177.639 136.002 151.498 147.503 128.4 161.834M205.95 70.8065C177.639 78.8016 151.498 90.303 128.4 104.634M128.4 161.834V104.634M128.4 161.834C105.777 175.87 86.0728 192.621 70.1065 211.45M128.4 104.634C105.777 118.67 86.0728 135.421 70.1065 154.25M70.1065 211.45C41.5917 245.078 25.0002 285.336 25.0002 328.6V271.4C25.0002 228.136 41.5917 187.878 70.1065 154.25M70.1065 211.45V154.25M394.05 128.006V70.8065M394.05 128.006C422.361 136.002 448.502 147.503 471.6 161.834M394.05 70.8065C422.361 78.8016 448.502 90.303 471.6 104.634M471.6 161.834V104.634M471.6 161.834C494.223 175.87 513.927 192.621 529.894 211.45M471.6 104.634C494.223 118.67 513.927 135.421 529.894 154.25M529.894 211.45C558.409 245.078 575 285.336 575 328.6V271.4C575 228.136 558.409 187.878 529.894 154.25M529.894 211.45V154.25" stroke="#6A6A6A" stroke-width="7" stroke-linecap="round" stroke-dasharray="14 14"/>
<path d="M248.85 387.12H234.22H156.34V374.8L192.2 350.05L205.4 214.2L173.5 206.5L185.05 193.3H289V206.5L260.4 223L255.45 360.5L293.4 368.75L282.95 387.12H248.85ZM444.65 387.12H368.75L270.85 282.4L362.15 223L325.85 206.5L336.52 193.3H426.5L428.7 203.75L329.15 270.85L414.95 355.55L453.45 368.75L444.65 387.12Z" fill="#6A6A6A"/>
</svg>
