<svg width="600" height="600" viewBox="0 0 600 600" fill="none" xmlns="http://www.w3.org/2000/svg">
<path d="M550 274C550 166.857 438.071 80 300 80C161.929 80 50 166.857 50 274M550 274C550 313.331 534.917 349.929 508.994 380.5M550 274V326C550 365.331 534.917 401.929 508.994 432.5M300 468V520M300 468C330.031 468 358.825 463.891 385.5 456.358M300 468C269.969 468 241.175 463.891 214.5 456.358M50 274C50 313.331 65.0832 349.929 91.0058 380.5M50 274V326C50 365.331 65.0832 401.929 91.0058 432.5M300 520C330.031 520 358.825 515.891 385.5 508.358M300 520C269.969 520 241.175 515.891 214.5 508.358M385.5 456.358V508.358M385.5 456.358C411.237 449.09 435.002 438.634 456 425.606M385.5 508.358C411.237 501.09 435.002 490.634 456 477.606M456 425.606V477.606M456 425.606C476.567 412.845 494.48 397.617 508.994 380.5M456 477.606C476.567 464.845 494.48 449.617 508.994 432.5M508.994 380.5V432.5M214.5 456.358V508.358M214.5 456.358C188.763 449.09 164.998 438.634 144 425.606M214.5 508.358C188.763 501.09 164.998 490.634 144 477.606M144 425.606V477.606M144 425.606C123.434 412.845 105.521 397.617 91.0058 380.5M144 477.606C123.434 464.845 105.521 449.617 91.0058 432.5M91.0058 380.5V432.5" stroke="#6A6A6A" stroke-width="15" stroke-linecap="round"/>
<path d="M300 132V80M300 132C269.969 132 241.175 136.109 214.5 143.642M300 132C330.031 132 358.825 136.109 385.5 143.642M300 80C269.969 80 241.175 84.109 214.5 91.642M300 80C330.031 80 358.825 84.109 385.5 91.642M214.5 143.642L214.5 91.642M214.5 143.642C188.763 150.91 164.998 161.366 144 174.394M214.5 91.642C188.763 98.9103 164.998 109.366 144 122.394M144 174.394V122.394M144 174.394C123.434 187.155 105.52 202.383 91.0057 219.5M144 122.394C123.434 135.155 105.52 150.383 91.0057 167.5M91.0057 219.5C65.0831 250.071 50 286.669 50 326V274C50 234.669 65.0831 198.071 91.0057 167.5M91.0057 219.5V167.5M385.5 143.642V91.642M385.5 143.642C411.237 150.91 435.002 161.366 456 174.394M385.5 91.642C411.237 98.9103 435.002 109.366 456 122.394M456 174.394V122.394M456 174.394C476.566 187.155 494.48 202.383 508.994 219.5M456 122.394C476.566 135.155 494.48 150.383 508.994 167.5M508.994 219.5C534.917 250.071 550 286.669 550 326V274C550 234.669 534.917 198.071 508.994 167.5M508.994 219.5V167.5" stroke="#6A6A6A" stroke-width="7" stroke-linecap="round" stroke-dasharray="14 14" />
<path d="M253.5 379.2H240.2H169.4V368L202 345.5L214 222L185 215L195.5 203H290V215L264 230L259.5 355L294 362.5L284.5 379.2H253.5ZM431.5 379.2H362.5L273.5 284L356.5 230L323.5 215L333.2 203H415L417 212.5L326.5 273.5L404.5 350.5L439.5 362.5L431.5 379.2Z" fill="#6A6A6A" />
</svg>
