<svg width="600" height="600" viewBox="0 0 600 600" fill="none" xmlns="http://www.w3.org/2000/svg">
<path d="M300 11L550 155.25M300 11L49.9999 155.25M300 11L174.981 227.408M300 11L425.019 227.408M550 155.25V443.75M550 155.25L425.019 227.408M550 443.75L300 588M550 443.75H300M550 443.75L425.019 227.408M300 588L49.9999 443.75M300 588V443.75M49.9999 443.75L49.9999 155.25M49.9999 443.75H300M49.9999 443.75L174.981 227.408M49.9999 155.25L174.981 227.408M300 443.75L174.981 227.408M300 443.75L425.019 227.408M174.981 227.408L425.019 227.408" stroke="#6A6A6A" stroke-width="15" stroke-linejoin="round" stroke-linecap="round"/>
<path d="M300 11V155.25M550 443.75L425 371.625M50 443.75L112.5 407.688L175 371.625M175 371.625L300 588L425 371.625M175 371.625L50 155.25H300M175 371.625H425M175 371.625L300 155.25M425 371.625L550 155.25L300 155.25M425 371.625L300 155.25" stroke="#6A6A6A" stroke-width="7" stroke-linejoin="round" stroke-dasharray="14 14" stroke-linecap="round"/>
</svg>
