<svg width="600" height="600" viewBox="0 0 600 600" fill="none" xmlns="http://www.w3.org/2000/svg">
<path fill-rule="evenodd" clip-rule="evenodd" d="M300 35.5C302.293 35.5 304.459 36.5486 305.882 38.3465L582.882 388.456C584.202 390.124 584.751 392.275 584.393 394.372C584.035 396.469 582.803 398.315 581.004 399.451L304.004 574.342C301.558 575.886 298.442 575.886 295.996 574.342L18.996 399.451C17.1971 398.315 15.9652 396.469 15.6071 394.372C15.2489 392.275 15.7983 390.124 17.1183 388.456L294.118 38.3465C295.541 36.5486 297.707 35.5 300 35.5ZM34.0576 391.221L292.5 554.395V64.5671L34.0576 391.221ZM307.5 64.5671V554.395L565.943 391.221L307.5 64.5671Z" fill="#6A6A6A"/>
<path fill-rule="evenodd" clip-rule="evenodd" d="M19 393C19 390.791 20.7909 389 23 389H29.925C32.1342 389 33.925 390.791 33.925 393C33.925 395.209 32.1342 397 29.925 397H23C20.7909 397 19 395.209 19 393ZM39.775 393C39.775 390.791 41.5659 389 43.775 389H57.625C59.8342 389 61.625 390.791 61.625 393C61.625 395.209 59.8342 397 57.625 397H43.775C41.5659 397 39.775 395.209 39.775 393ZM67.475 393C67.475 390.791 69.2659 389 71.475 389H85.325C87.5342 389 89.325 390.791 89.325 393C89.325 395.209 87.5342 397 85.325 397H71.475C69.2659 397 67.475 395.209 67.475 393ZM95.175 393C95.175 390.791 96.9659 389 99.175 389H113.025C115.234 389 117.025 390.791 117.025 393C117.025 395.209 115.234 397 113.025 397H99.175C96.9659 397 95.175 395.209 95.175 393ZM122.875 393C122.875 390.791 124.666 389 126.875 389H140.725C142.934 389 144.725 390.791 144.725 393C144.725 395.209 142.934 397 140.725 397H126.875C124.666 397 122.875 395.209 122.875 393ZM150.575 393C150.575 390.791 152.366 389 154.575 389H168.425C170.634 389 172.425 390.791 172.425 393C172.425 395.209 170.634 397 168.425 397H154.575C152.366 397 150.575 395.209 150.575 393ZM178.275 393C178.275 390.791 180.066 389 182.275 389H196.125C198.334 389 200.125 390.791 200.125 393C200.125 395.209 198.334 397 196.125 397H182.275C180.066 397 178.275 395.209 178.275 393ZM205.975 393C205.975 390.791 207.766 389 209.975 389H223.825C226.034 389 227.825 390.791 227.825 393C227.825 395.209 226.034 397 223.825 397H209.975C207.766 397 205.975 395.209 205.975 393ZM233.675 393C233.675 390.791 235.466 389 237.675 389H251.525C253.734 389 255.525 390.791 255.525 393C255.525 395.209 253.734 397 251.525 397H237.675C235.466 397 233.675 395.209 233.675 393ZM261.375 393C261.375 390.791 263.166 389 265.375 389H279.225C281.434 389 283.225 390.791 283.225 393C283.225 395.209 281.434 397 279.225 397H265.375C263.166 397 261.375 395.209 261.375 393ZM289.075 393C289.075 390.791 290.866 389 293.075 389H306.925C309.134 389 310.925 390.791 310.925 393C310.925 395.209 309.134 397 306.925 397H293.075C290.866 397 289.075 395.209 289.075 393ZM316.775 393C316.775 390.791 318.566 389 320.775 389H334.625C336.834 389 338.625 390.791 338.625 393C338.625 395.209 336.834 397 334.625 397H320.775C318.566 397 316.775 395.209 316.775 393ZM344.475 393C344.475 390.791 346.266 389 348.475 389H362.325C364.534 389 366.325 390.791 366.325 393C366.325 395.209 364.534 397 362.325 397H348.475C346.266 397 344.475 395.209 344.475 393ZM372.175 393C372.175 390.791 373.966 389 376.175 389H390.025C392.234 389 394.025 390.791 394.025 393C394.025 395.209 392.234 397 390.025 397H376.175C373.966 397 372.175 395.209 372.175 393ZM399.875 393C399.875 390.791 401.666 389 403.875 389H417.725C419.934 389 421.725 390.791 421.725 393C421.725 395.209 419.934 397 417.725 397H403.875C401.666 397 399.875 395.209 399.875 393ZM427.575 393C427.575 390.791 429.366 389 431.575 389H445.425C447.634 389 449.425 390.791 449.425 393C449.425 395.209 447.634 397 445.425 397H431.575C429.366 397 427.575 395.209 427.575 393ZM455.275 393C455.275 390.791 457.066 389 459.275 389H473.125C475.334 389 477.125 390.791 477.125 393C477.125 395.209 475.334 397 473.125 397H459.275C457.066 397 455.275 395.209 455.275 393ZM482.975 393C482.975 390.791 484.766 389 486.975 389H500.825C503.034 389 504.825 390.791 504.825 393C504.825 395.209 503.034 397 500.825 397H486.975C484.766 397 482.975 395.209 482.975 393ZM510.675 393C510.675 390.791 512.466 389 514.675 389H528.525C530.734 389 532.525 390.791 532.525 393C532.525 395.209 530.734 397 528.525 397H514.675C512.466 397 510.675 395.209 510.675 393ZM538.375 393C538.375 390.791 540.166 389 542.375 389H556.225C558.434 389 560.225 390.791 560.225 393C560.225 395.209 558.434 397 556.225 397H542.375C540.166 397 538.375 395.209 538.375 393ZM566.075 393C566.075 390.791 567.866 389 570.075 389H577C579.209 389 581 390.791 581 393C581 395.209 579.209 397 577 397H570.075C567.866 397 566.075 395.209 566.075 393Z" fill="#6A6A6A"/>
</svg>
