<svg width="600" height="600" viewBox="0 0 600 600" fill="none" xmlns="http://www.w3.org/2000/svg">
<path fill-rule="evenodd" clip-rule="evenodd" d="M300 16.5C302.046 16.5 304.002 17.3353 305.417 18.8125L531.917 255.312C532.812 256.247 533.451 257.398 533.769 258.653L557.269 351.153C557.952 353.839 557.097 356.682 555.048 358.547L305.048 586.047C302.187 588.651 297.814 588.651 294.952 586.047L44.9524 358.547C42.903 356.682 42.0488 353.839 42.7311 351.153L66.2311 258.653C66.5499 257.398 67.1881 256.247 68.0836 255.312L294.584 18.8125C295.998 17.3353 297.955 16.5 300 16.5ZM80.283 264.261L66.3561 319.079L214.514 124.104L80.283 264.261ZM300 36.3963L65.1189 345.5H534.882L300 36.3963ZM530.615 360.5H69.3854L300 570.359L530.615 360.5ZM533.644 319.079L385.487 124.104L519.717 264.261L533.644 319.079Z" fill="#6A6A6A"/>
<path fill-rule="evenodd" clip-rule="evenodd" d="M69.9475 258.662C70.6346 257.334 72.005 256.5 73.5002 256.5H80.5784C82.7875 256.5 84.5784 258.291 84.5784 260.5C84.5784 262.518 83.0836 264.187 81.1407 264.461C81.9874 266.192 81.4794 268.33 79.8558 269.479C78.0527 270.755 75.5563 270.328 74.28 268.525L70.2353 262.811C69.3715 261.59 69.2605 259.99 69.9475 258.662ZM90.7346 260.5C90.7346 258.291 92.5255 256.5 94.7346 256.5H108.891C111.1 256.5 112.891 258.291 112.891 260.5C112.891 262.709 111.1 264.5 108.891 264.5H94.7346C92.5255 264.5 90.7346 262.709 90.7346 260.5ZM119.047 260.5C119.047 258.291 120.838 256.5 123.047 256.5H137.203C139.413 256.5 141.203 258.291 141.203 260.5C141.203 262.709 139.413 264.5 137.203 264.5H123.047C120.838 264.5 119.047 262.709 119.047 260.5ZM147.36 260.5C147.36 258.291 149.15 256.5 151.36 256.5H165.516C167.725 256.5 169.516 258.291 169.516 260.5C169.516 262.709 167.725 264.5 165.516 264.5H151.36C149.15 264.5 147.36 262.709 147.36 260.5ZM175.672 260.5C175.672 258.291 177.463 256.5 179.672 256.5H193.828C196.038 256.5 197.828 258.291 197.828 260.5C197.828 262.709 196.038 264.5 193.828 264.5H179.672C177.463 264.5 175.672 262.709 175.672 260.5ZM203.985 260.5C203.985 258.291 205.775 256.5 207.985 256.5H222.141C224.35 256.5 226.141 258.291 226.141 260.5C226.141 262.709 224.35 264.5 222.141 264.5H207.985C205.775 264.5 203.985 262.709 203.985 260.5ZM232.297 260.5C232.297 258.291 234.088 256.5 236.297 256.5H250.453C252.663 256.5 254.453 258.291 254.453 260.5C254.453 262.709 252.663 264.5 250.453 264.5H236.297C234.088 264.5 232.297 262.709 232.297 260.5ZM260.61 260.5C260.61 258.291 262.4 256.5 264.61 256.5H278.766C280.975 256.5 282.766 258.291 282.766 260.5C282.766 262.709 280.975 264.5 278.766 264.5H264.61C262.4 264.5 260.61 262.709 260.61 260.5ZM288.922 260.5C288.922 258.291 290.713 256.5 292.922 256.5H307.078C309.288 256.5 311.078 258.291 311.078 260.5C311.078 262.709 309.288 264.5 307.078 264.5H292.922C290.713 264.5 288.922 262.709 288.922 260.5ZM317.235 260.5C317.235 258.291 319.025 256.5 321.235 256.5H335.391C337.6 256.5 339.391 258.291 339.391 260.5C339.391 262.709 337.6 264.5 335.391 264.5H321.235C319.025 264.5 317.235 262.709 317.235 260.5ZM345.547 260.5C345.547 258.291 347.338 256.5 349.547 256.5H363.703C365.913 256.5 367.703 258.291 367.703 260.5C367.703 262.709 365.913 264.5 363.703 264.5H349.547C347.338 264.5 345.547 262.709 345.547 260.5ZM373.86 260.5C373.86 258.291 375.65 256.5 377.86 256.5H392.016C394.225 256.5 396.016 258.291 396.016 260.5C396.016 262.709 394.225 264.5 392.016 264.5H377.86C375.65 264.5 373.86 262.709 373.86 260.5ZM402.172 260.5C402.172 258.291 403.963 256.5 406.172 256.5H420.328C422.538 256.5 424.328 258.291 424.328 260.5C424.328 262.709 422.538 264.5 420.328 264.5H406.172C403.963 264.5 402.172 262.709 402.172 260.5ZM430.485 260.5C430.485 258.291 432.275 256.5 434.485 256.5H448.641C450.85 256.5 452.641 258.291 452.641 260.5C452.641 262.709 450.85 264.5 448.641 264.5H434.485C432.275 264.5 430.485 262.709 430.485 260.5ZM458.797 260.5C458.797 258.291 460.588 256.5 462.797 256.5H476.953C479.163 256.5 480.953 258.291 480.953 260.5C480.953 262.709 479.163 264.5 476.953 264.5H462.797C460.588 264.5 458.797 262.709 458.797 260.5ZM487.11 260.5C487.11 258.291 488.9 256.5 491.11 256.5H505.266C507.475 256.5 509.266 258.291 509.266 260.5C509.266 262.709 507.475 264.5 505.266 264.5H491.11C488.9 264.5 487.11 262.709 487.11 260.5ZM515.422 260.5C515.422 258.291 517.213 256.5 519.422 256.5H526.5C527.996 256.5 529.366 257.334 530.053 258.662C530.74 259.99 530.629 261.59 529.765 262.811L525.72 268.525C524.444 270.328 521.948 270.756 520.145 269.479C518.521 268.33 518.013 266.192 518.86 264.461C516.917 264.187 515.422 262.518 515.422 260.5ZM83.3232 274.378C85.1264 273.102 87.6228 273.529 88.8991 275.332L96.9884 286.76C98.2647 288.564 97.8375 291.06 96.0344 292.336C94.2312 293.613 91.7349 293.186 90.4586 291.382L82.3693 279.954C81.093 278.151 81.5201 275.654 83.3232 274.378ZM516.677 274.378C518.48 275.654 518.907 278.151 517.631 279.954L509.542 291.382C508.266 293.186 505.769 293.613 503.966 292.336C502.163 291.06 501.736 288.564 503.012 286.761L511.101 275.332C512.378 273.529 514.874 273.102 516.677 274.378ZM99.5018 297.235C101.305 295.959 103.801 296.386 105.078 298.189L113.167 309.618C114.443 311.421 114.016 313.917 112.213 315.193C110.41 316.47 107.913 316.043 106.637 314.24L98.5478 302.811C97.2715 301.008 97.6987 298.511 99.5018 297.235ZM500.499 297.235C502.302 298.511 502.729 301.008 501.453 302.811L493.363 314.24C492.087 316.043 489.591 316.47 487.787 315.194C485.984 313.917 485.557 311.421 486.834 309.618L494.923 298.189C496.199 296.386 498.695 295.959 500.499 297.235ZM115.68 320.092C117.484 318.816 119.98 319.243 121.256 321.046L129.345 332.475C130.622 334.278 130.195 336.774 128.392 338.051C126.588 339.327 124.092 338.9 122.816 337.097L114.726 325.668C113.45 323.865 113.877 321.369 115.68 320.092ZM484.32 320.092C486.123 321.369 486.55 323.865 485.274 325.668L477.185 337.097C475.908 338.9 473.412 339.327 471.609 338.051C469.806 336.774 469.379 334.278 470.655 332.475L478.744 321.046C480.021 319.243 482.517 318.816 484.32 320.092ZM131.859 342.949C133.662 341.673 136.158 342.1 137.435 343.903L145.524 355.332C146.8 357.135 146.373 359.631 144.57 360.908C142.767 362.184 140.271 361.757 138.994 359.954L130.905 348.525C129.629 346.722 130.056 344.226 131.859 342.949ZM468.142 342.949C469.945 344.226 470.372 346.722 469.095 348.525L461.006 359.954C459.73 361.757 457.233 362.184 455.43 360.908C453.627 359.632 453.2 357.135 454.476 355.332L462.566 343.903C463.842 342.1 466.338 341.673 468.142 342.949ZM148.038 365.807C149.841 364.53 152.337 364.957 153.613 366.76L161.703 378.189C162.979 379.992 162.552 382.489 160.749 383.765C158.946 385.041 156.449 384.614 155.173 382.811L147.084 371.382C145.807 369.579 146.234 367.083 148.038 365.807ZM451.963 365.807C453.766 367.083 454.193 369.579 452.917 371.382L444.828 382.811C443.551 384.614 441.055 385.041 439.252 383.765C437.449 382.489 437.022 379.992 438.298 378.189L446.387 366.761C447.663 364.957 450.16 364.53 451.963 365.807ZM164.216 388.664C166.019 387.387 168.516 387.814 169.792 389.618L177.881 401.046C179.158 402.849 178.73 405.346 176.927 406.622C175.124 407.898 172.628 407.471 171.351 405.668L163.262 394.24C161.986 392.436 162.413 389.94 164.216 388.664ZM435.784 388.664C437.588 389.94 438.015 392.436 436.738 394.24L428.649 405.668C427.373 407.471 424.876 407.898 423.073 406.622C421.27 405.346 420.843 402.849 422.119 401.046L430.209 389.618C431.485 387.815 433.981 387.387 435.784 388.664ZM180.395 411.521C182.198 410.244 184.694 410.672 185.97 412.475L194.06 423.903C195.336 425.706 194.909 428.203 193.106 429.479C191.303 430.755 188.806 430.328 187.53 428.525L179.441 417.097C178.164 415.293 178.591 412.797 180.395 411.521ZM419.606 411.521C421.409 412.797 421.836 415.294 420.56 417.097L412.47 428.525C411.194 430.328 408.698 430.756 406.895 429.479C405.091 428.203 404.664 425.707 405.941 423.903L414.03 412.475C415.306 410.672 417.803 410.245 419.606 411.521ZM196.573 434.378C198.376 433.102 200.873 433.529 202.149 435.332L210.238 446.76C211.515 448.564 211.088 451.06 209.284 452.336C207.481 453.613 204.985 453.185 203.709 451.382L195.619 439.954C194.343 438.151 194.77 435.654 196.573 434.378ZM403.427 434.378C405.23 435.654 405.658 438.151 404.381 439.954L396.292 451.382C395.016 453.186 392.519 453.613 390.716 452.336C388.913 451.06 388.486 448.564 389.762 446.76L397.851 435.332C399.128 433.529 401.624 433.102 403.427 434.378ZM212.752 457.235C214.555 455.959 217.051 456.386 218.328 458.189L226.417 469.618C227.693 471.421 227.266 473.917 225.463 475.193C223.66 476.47 221.163 476.043 219.887 474.239L211.798 462.811C210.522 461.008 210.949 458.511 212.752 457.235ZM387.249 457.235C389.052 458.511 389.479 461.008 388.203 462.811L380.113 474.24C378.837 476.043 376.341 476.47 374.538 475.193C372.734 473.917 372.307 471.421 373.584 469.618L381.673 458.189C382.949 456.386 385.446 455.959 387.249 457.235ZM228.93 480.092C230.734 478.816 233.23 479.243 234.506 481.046L242.595 492.475C243.872 494.278 243.445 496.774 241.642 498.051C239.838 499.327 237.342 498.9 236.066 497.097L227.976 485.668C226.7 483.865 227.127 481.368 228.93 480.092ZM371.07 480.092C372.873 481.369 373.3 483.865 372.024 485.668L363.935 497.097C362.658 498.9 360.162 499.327 358.359 498.051C356.556 496.774 356.129 494.278 357.405 492.475L365.494 481.046C366.771 479.243 369.267 478.816 371.07 480.092ZM245.109 502.949C246.912 501.673 249.408 502.1 250.685 503.903L258.774 515.332C260.05 517.135 259.623 519.631 257.82 520.908C256.017 522.184 253.521 521.757 252.244 519.954L244.155 508.525C242.879 506.722 243.306 504.226 245.109 502.949ZM354.892 502.949C356.695 504.226 357.122 506.722 355.845 508.525L347.756 519.954C346.48 521.757 343.984 522.184 342.18 520.908C340.377 519.631 339.95 517.135 341.226 515.332L349.316 503.903C350.592 502.1 353.088 501.673 354.892 502.949ZM261.287 525.806C263.091 524.53 265.587 524.957 266.863 526.76L274.953 538.189C276.229 539.992 275.802 542.489 273.999 543.765C272.195 545.041 269.699 544.614 268.423 542.811L260.334 531.382C259.057 529.579 259.484 527.083 261.287 525.806ZM338.713 525.807C340.516 527.083 340.943 529.579 339.667 531.382L331.578 542.811C330.301 544.614 327.805 545.041 326.002 543.765C324.199 542.489 323.772 539.992 325.048 538.189L333.137 526.76C334.413 524.957 336.91 524.53 338.713 525.807ZM277.466 548.664C279.269 547.387 281.766 547.814 283.042 549.618L291.131 561.046C292.407 562.849 291.98 565.346 290.177 566.622C288.374 567.898 285.878 567.471 284.601 565.668L276.512 554.239C275.236 552.436 275.663 549.94 277.466 548.664ZM322.534 548.664C324.338 549.94 324.765 552.436 323.488 554.24L315.399 565.668C314.123 567.471 311.626 567.898 309.823 566.622C308.02 565.346 307.593 562.849 308.869 561.046L316.959 549.618C318.235 547.815 320.731 547.387 322.534 548.664ZM293.645 571.521C295.448 570.244 297.944 570.672 299.22 572.475L300 573.576L300.78 572.475C302.056 570.672 304.553 570.245 306.356 571.521C308.159 572.797 308.586 575.294 307.31 577.097L303.265 582.811C302.515 583.87 301.298 584.5 300 584.5C298.702 584.5 297.485 583.87 296.735 582.811L292.691 577.097C291.414 575.293 291.841 572.797 293.645 571.521Z" fill="#6A6A6A"/>
</svg>
