<svg width="600" height="600" viewBox="0 0 600 600" fill="none" xmlns="http://www.w3.org/2000/svg">
<path d="M580 270.88C580 314.931 563.107 355.921 534.074 390.16C517.817 409.331 497.754 426.387 474.72 440.678C451.202 455.27 424.586 466.98 395.76 475.121C365.884 483.558 333.635 488.16 300 488.16C266.365 488.16 234.116 483.558 204.24 475.121C175.414 466.98 148.798 455.27 125.28 440.678C102.246 426.387 82.1832 409.331 65.9267 390.16C36.8934 355.921 20.0002 314.931 20.0002 270.88C20.0002 150.88 145.36 53.6001 300 53.6001C454.64 53.6001 580 150.88 580 270.88Z" fill="#EBE5D0" stroke="#6A6A6A" stroke-width="15" stroke-linejoin="round"/>
<path d="M247.92 388.704H233.024H153.728V376.16L190.24 350.96L203.68 212.64L171.2 204.8L182.96 191.36H288.8V204.8L259.68 221.6L254.64 361.6L293.28 370L282.64 388.704H247.92ZM447.28 388.704H370L270.32 282.08L363.28 221.6L326.32 204.8L337.184 191.36H428.8L431.04 202L329.68 270.32L417.04 356.56L456.24 370L447.28 388.704Z" fill="#6A6A6A"/>
<path d="M300 488.16C333.635 488.16 365.884 483.558 395.76 475.121C424.586 466.98 451.202 455.27 474.72 440.678C497.754 426.387 517.817 409.331 534.074 390.16C563.107 355.92 580 314.931 580 270.88V329.12C580 373.171 563.107 414.16 534.074 448.4C517.817 467.571 497.754 484.626 474.72 498.918C451.202 513.51 424.586 525.22 395.76 533.361C365.884 541.798 333.635 546.4 300 546.4C266.365 546.4 234.116 541.798 204.24 533.361C175.414 525.22 148.798 513.51 125.28 498.918C102.246 484.626 82.1832 467.571 65.9267 448.4C36.8934 414.16 20.0002 373.171 20.0002 329.12V270.88C20.0002 314.931 36.8934 355.92 65.9267 390.16C82.1832 409.331 102.246 426.387 125.28 440.678C148.798 455.27 175.414 466.98 204.24 475.121C234.116 483.558 266.365 488.16 300 488.16Z" fill="#EBE5D0"/>
<path d="M300 488.16V546.4M300 488.16C333.635 488.16 365.884 483.558 395.76 475.121M300 488.16C266.365 488.16 234.116 483.558 204.24 475.121M300 546.4C333.635 546.4 365.884 541.798 395.76 533.361M300 546.4C266.365 546.4 234.116 541.798 204.24 533.361M395.76 475.121V533.361M395.76 475.121C424.586 466.98 451.202 455.27 474.72 440.678M395.76 533.361C424.586 525.22 451.202 513.51 474.72 498.918M474.72 440.678V498.918M474.72 440.678C497.754 426.387 517.817 409.331 534.074 390.16M474.72 498.918C497.754 484.626 517.817 467.571 534.074 448.4M534.074 390.16C563.107 355.92 580 314.931 580 270.88V329.12C580 373.171 563.107 414.16 534.074 448.4M534.074 390.16V448.4M204.24 475.121V533.361M204.24 475.121C175.414 466.98 148.798 455.27 125.28 440.678M204.24 533.361C175.414 525.22 148.798 513.51 125.28 498.918M125.28 440.678V498.918M125.28 440.678C102.246 426.387 82.1832 409.331 65.9267 390.16M125.28 498.918C102.246 484.626 82.1832 467.571 65.9267 448.4M65.9267 390.16C36.8934 355.92 20.0002 314.931 20.0002 270.88V329.12C20.0002 373.171 36.8934 414.16 65.9267 448.4M65.9267 390.16V448.4" stroke="#6A6A6A" stroke-width="15" stroke-linecap="round" stroke-linejoin="round"/>
<path d="M300 116.366L300 61.4402M300 116.366C266.365 116.366 234.116 120.706 204.24 128.663M300 116.366C333.635 116.366 365.884 120.706 395.76 128.663M20.0002 266.355V321.28C20.0002 279.736 36.8933 241.079 65.9266 208.788M580 266.355V321.28C580 279.736 563.107 241.079 534.073 208.788M204.24 128.663L204.24 73.7372M204.24 128.663C175.414 136.34 148.798 147.384 125.28 161.145M125.28 161.145V106.22M125.28 161.145C102.246 174.623 82.1831 190.708 65.9266 208.788M65.9266 208.788V153.863M395.76 128.663V73.7372M395.76 128.663C424.586 136.34 451.202 147.384 474.72 161.145M474.72 161.145V106.22M474.72 161.145C497.754 174.623 517.817 190.708 534.073 208.788M534.073 208.788V153.863" stroke="#6A6A6A" stroke-width="7" stroke-linecap="round" stroke-linejoin="round" stroke-dasharray="14 14"/>
</svg>
